<svg width="1920" height="1080" viewBox="0 0 1920 1080" xmlns="http://www.w3.org/2000/svg">
  <!-- Background Gradient -->
  <defs>
    <linearGradient id="bgGradient" x1="0%" y1="0%" x2="100%" y2="100%">
      <stop offset="0%" style="stop-color:#f8fafc;stop-opacity:1" />
      <stop offset="30%" style="stop-color:#f1f5f9;stop-opacity:1" />
      <stop offset="70%" style="stop-color:#e2e8f0;stop-opacity:1" />
      <stop offset="100%" style="stop-color:#cbd5e1;stop-opacity:1" />
    </linearGradient>
    
    <!-- Accent Gradient -->
    <linearGradient id="accentGradient" x1="0%" y1="0%" x2="100%" y2="100%">
      <stop offset="0%" style="stop-color:#6366f1;stop-opacity:0.1" />
      <stop offset="50%" style="stop-color:#8b5cf6;stop-opacity:0.15" />
      <stop offset="100%" style="stop-color:#a855f7;stop-opacity:0.1" />
    </linearGradient>
    
    <!-- Subtle Pattern -->
    <pattern id="dots" x="0" y="0" width="40" height="40" patternUnits="userSpaceOnUse">
      <circle cx="20" cy="20" r="1" fill="#6366f1" fill-opacity="0.05"/>
    </pattern>
  </defs>
  
  <!-- Base Background -->
  <rect width="1920" height="1080" fill="url(#bgGradient)"/>
  
  <!-- Subtle Pattern Overlay -->
  <rect width="1920" height="1080" fill="url(#dots)"/>
  
  <!-- Abstract Geometric Shapes -->
  <circle cx="200" cy="200" r="150" fill="url(#accentGradient)" opacity="0.3"/>
  <circle cx="1700" cy="300" r="120" fill="url(#accentGradient)" opacity="0.2"/>
  <circle cx="1600" cy="800" r="100" fill="url(#accentGradient)" opacity="0.25"/>
  <circle cx="150" cy="900" r="80" fill="url(#accentGradient)" opacity="0.2"/>
  
  <!-- Flowing Curves -->
  <path d="M0,400 Q480,300 960,400 T1920,400 L1920,1080 L0,1080 Z" fill="url(#accentGradient)" opacity="0.1"/>
  <path d="M0,600 Q480,500 960,600 T1920,600 L1920,1080 L0,1080 Z" fill="url(#accentGradient)" opacity="0.05"/>
  
  <!-- Professional Woman Silhouette -->
  <g transform="translate(1400, 300)">
    <!-- Professional woman silhouette -->
    <path d="M50,0 C70,0 85,15 85,35 C85,55 70,70 50,70 C30,70 15,55 15,35 C15,15 30,0 50,0 Z" fill="#6366f1" opacity="0.1"/>
    <path d="M20,70 L80,70 L85,150 L75,150 L75,200 L65,200 L65,180 L35,180 L35,200 L25,200 L25,150 L15,150 Z" fill="#6366f1" opacity="0.08"/>
    <!-- Briefcase -->
    <rect x="60" y="120" width="25" height="15" rx="2" fill="#6366f1" opacity="0.1"/>
    <rect x="65" y="115" width="15" height="5" rx="1" fill="#6366f1" opacity="0.1"/>
  </g>
  
  <!-- Additional decorative elements -->
  <rect x="100" y="100" width="30" height="30" rx="5" fill="#6366f1" opacity="0.03" transform="rotate(45 115 115)"/>
  <rect x="1750" y="150" width="25" height="25" rx="5" fill="#8b5cf6" opacity="0.03" transform="rotate(30 1762 162)"/>
  <rect x="200" y="800" width="35" height="35" rx="5" fill="#a855f7" opacity="0.03" transform="rotate(15 217 817)"/>
  
  <!-- Subtle light rays -->
  <path d="M0,0 L200,0 L150,200 L0,150 Z" fill="url(#accentGradient)" opacity="0.02"/>
  <path d="M1920,0 L1720,0 L1770,200 L1920,150 Z" fill="url(#accentGradient)" opacity="0.02"/>
</svg>